<?xml version="1.0" standalone="no"?>
<!DOCTYPE svg PUBLIC "-//W3C//DTD SVG 20010904//EN"
 "http://www.w3.org/TR/2001/REC-SVG-20010904/DTD/svg10.dtd">
<svg version="1.0" xmlns="http://www.w3.org/2000/svg"
 width="512.000000pt" height="512.000000pt" viewBox="0 0 512.000000 512.000000"
 preserveAspectRatio="xMidYMid meet">
<metadata>
Created by potrace 1.14, written by Peter Selinger 2001-2017
</metadata>
<g transform="translate(0.000000,512.000000) scale(0.100000,-0.100000)"
fill="#000000" stroke="none">
<path d="M3740 4943 c-155 -54 -287 -215 -404 -494 -96 -231 -190 -598 -227
-894 -6 -55 -15 -103 -18 -107 -3 -4 -420 -9 -926 -11 -506 -3 -933 -7 -950
-10 -16 -3 -52 -9 -80 -13 -27 -3 -59 -8 -70 -10 -11 -3 -36 -7 -55 -10 -19
-3 -63 -12 -98 -20 -397 -91 -675 -273 -736 -481 -50 -174 33 -342 237 -479
l67 -46 0 -731 0 -732 -64 -68 c-110 -117 -169 -249 -169 -382 0 -100 16 -140
87 -211 92 -91 -51 -84 1691 -82 l1530 3 46 27 c46 27 48 27 80 10 72 -36 100
-40 307 -41 227 -2 280 7 357 57 56 36 135 120 180 189 20 32 46 70 56 85 11
15 19 32 19 37 0 5 9 25 19 43 59 100 185 491 214 663 3 17 12 66 21 110 8 44
18 96 21 115 3 19 7 46 10 60 3 14 7 48 10 75 4 28 10 77 15 110 5 33 12 98
15 145 4 47 8 96 11 110 25 153 25 1049 -1 1201 -2 13 -6 58 -9 100 -5 68 -30
271 -41 342 -3 15 -7 42 -10 60 -3 17 -8 46 -11 62 -9 55 -45 229 -56 270 -5
22 -12 47 -13 56 -11 56 -84 281 -122 374 -107 264 -233 434 -372 502 -56 28
-58 28 -286 30 -188 2 -238 -1 -275 -14z"/>
</g>
</svg>
